<svg xmlns="http://www.w3.org/2000/svg" width="1270" height="375" viewBox="0 0 1270 375">
  <defs>
    <filter id="sh" x="-15%" y="-15%" width="130%" height="130%">
      <feDropShadow dx="0" dy="2" stdDeviation="3" flood-color="#1e2d45" flood-opacity="0.12"/>
    </filter>
    <linearGradient id="bg" x1="0%" y1="0%" x2="100%" y2="100%">
      <stop offset="0%" stop-color="#f4f6fb"/>
      <stop offset="100%" stop-color="#eef2ff"/>
    </linearGradient>
  </defs>

  <rect x="0" y="0" width="1270" height="375" fill="url(#bg)"/>

  <text x="635" y="16" text-anchor="middle"
        font-family="'Segoe UI',Arial,sans-serif"
        font-size="16" font-weight="700" fill="#1e2d45">
    Jerarquia de la escena: CharSelectionScene
  </text>

  <!-- ROOT -->
  <rect x="350" y="24" width="300" height="50" rx="10" ry="10"
        fill="#1e2d45" filter="url(#sh)"/>
  <text x="500" y="47" text-anchor="middle"
        font-family="'Segoe UI',Arial,sans-serif"
        font-size="15" font-weight="700" fill="#ffffff">CharSelectionScene</text>
  <text x="500" y="64" text-anchor="middle"
        font-family="'Segoe UI',Arial,sans-serif"
        font-size="10" fill="#7090c0">Scene Root</text>

  <!-- Root to trunk -->
  <line x1="500" y1="74" x2="500" y2="94" stroke="#8090a8" stroke-width="1.8"/>

  <!-- TRUNK NIVEL 1 -->
  <line x1="80"  y1="94" x2="920" y2="94" stroke="#8090a8" stroke-width="1.8"/>
  <line x1="80"  y1="94" x2="80"  y2="98" stroke="#8090a8" stroke-width="1.8"/>
  <line x1="220" y1="94" x2="220" y2="98" stroke="#8090a8" stroke-width="1.8"/>
  <line x1="360" y1="94" x2="360" y2="98" stroke="#8090a8" stroke-width="1.8"/>
  <line x1="490" y1="94" x2="490" y2="98" stroke="#8090a8" stroke-width="1.8"/>
  <line x1="920" y1="94" x2="920" y2="98" stroke="#8090a8" stroke-width="1.8"/>

  <!-- NIVEL 1: Main Camera -->
  <rect x="15" y="98" width="130" height="60" rx="8" ry="8"
        fill="#f0f2f8" stroke="#7080a0" stroke-width="1.5" filter="url(#sh)"/>
  <rect x="15" y="98" width="130" height="5" rx="8" ry="8" fill="#6078a0"/>
  <rect x="15" y="101" width="130" height="2" fill="#6078a0"/>
  <text x="80" y="120" text-anchor="middle"
        font-family="'Segoe UI',Arial,sans-serif"
        font-size="12" font-weight="700" fill="#1e2d45">Main Camera</text>
  <text x="80" y="138" text-anchor="middle"
        font-family="'Segoe UI',Arial,sans-serif"
        font-size="10" fill="#5070a0">Camera</text>

  <!-- NIVEL 1: Directional Light -->
  <rect x="155" y="98" width="130" height="60" rx="8" ry="8"
        fill="#f0f2f8" stroke="#7080a0" stroke-width="1.5" filter="url(#sh)"/>
  <rect x="155" y="98" width="130" height="5" rx="8" ry="8" fill="#6078a0"/>
  <rect x="155" y="101" width="130" height="2" fill="#6078a0"/>
  <text x="220" y="120" text-anchor="middle"
        font-family="'Segoe UI',Arial,sans-serif"
        font-size="12" font-weight="700" fill="#1e2d45">Directional Light</text>
  <text x="220" y="138" text-anchor="middle"
        font-family="'Segoe UI',Arial,sans-serif"
        font-size="10" fill="#5070a0">Light</text>

  <!-- NIVEL 1: EventSystem -->
  <rect x="295" y="98" width="130" height="60" rx="8" ry="8"
        fill="#f0f2f8" stroke="#7080a0" stroke-width="1.5" filter="url(#sh)"/>
  <rect x="295" y="98" width="130" height="5" rx="8" ry="8" fill="#6078a0"/>
  <rect x="295" y="101" width="130" height="2" fill="#6078a0"/>
  <text x="360" y="120" text-anchor="middle"
        font-family="'Segoe UI',Arial,sans-serif"
        font-size="12" font-weight="700" fill="#1e2d45">EventSystem</text>
  <text x="360" y="138" text-anchor="middle"
        font-family="'Segoe UI',Arial,sans-serif"
        font-size="10" fill="#5070a0">EventSystem</text>

  <!-- NIVEL 1: Grid -->
  <rect x="425" y="98" width="130" height="60" rx="8" ry="8"
        fill="#e4f5e4" stroke="#50a050" stroke-width="1.5" filter="url(#sh)"/>
  <rect x="425" y="98" width="130" height="5" rx="8" ry="8" fill="#408040"/>
  <rect x="425" y="101" width="130" height="2" fill="#408040"/>
  <text x="490" y="120" text-anchor="middle"
        font-family="'Segoe UI',Arial,sans-serif"
        font-size="12" font-weight="700" fill="#1e2d45">Grid</text>
  <text x="490" y="138" text-anchor="middle"
        font-family="'Segoe UI',Arial,sans-serif"
        font-size="10" fill="#3a703a">Grid Component</text>

  <!-- NIVEL 1: Canvas -->
  <rect x="855" y="98" width="130" height="60" rx="8" ry="8"
        fill="#ede0ff" stroke="#7040c0" stroke-width="1.5" filter="url(#sh)"/>
  <rect x="855" y="98" width="130" height="5" rx="8" ry="8" fill="#7040c0"/>
  <rect x="855" y="101" width="130" height="2" fill="#7040c0"/>
  <text x="920" y="116" text-anchor="middle"
        font-family="'Segoe UI',Arial,sans-serif"
        font-size="12" font-weight="700" fill="#1e2d45">Canvas</text>
  <text x="920" y="131" text-anchor="middle"
        font-family="'Segoe UI',Arial,sans-serif"
        font-size="8.5" fill="#5030a0">CharSelectionMenu</text>
  <text x="920" y="145" text-anchor="middle"
        font-family="'Segoe UI',Arial,sans-serif"
        font-size="8.5" fill="#5030a0">ButtonsHandler.cs</text>

  <!-- Grid → Tilemap (linea recta) -->
  <line x1="490" y1="158" x2="490" y2="204" stroke="#408040" stroke-width="1.8"/>

  <!-- Canvas → trunk nivel 2 -->
  <line x1="920" y1="158" x2="920" y2="200" stroke="#7040c0" stroke-width="1.8"/>

  <!-- TRUNK NIVEL 2 (Canvas children) -->
  <line x1="656"  y1="200" x2="1184" y2="200" stroke="#7040c0" stroke-width="1.8"/>
  <line x1="656"  y1="200" x2="656"  y2="204" stroke="#7040c0" stroke-width="1.8"/>
  <line x1="788"  y1="200" x2="788"  y2="204" stroke="#7040c0" stroke-width="1.8"/>
  <line x1="920"  y1="200" x2="920"  y2="204" stroke="#7040c0" stroke-width="1.8"/>
  <line x1="1052" y1="200" x2="1052" y2="204" stroke="#7040c0" stroke-width="1.8"/>
  <line x1="1184" y1="200" x2="1184" y2="204" stroke="#7040c0" stroke-width="1.8"/>

  <!-- NIVEL 2: Tilemap -->
  <rect x="425" y="204" width="130" height="60" rx="8" ry="8"
        fill="#d8f0d8" stroke="#3da03d" stroke-width="1.5" filter="url(#sh)"/>
  <rect x="425" y="204" width="130" height="5" rx="8" ry="8" fill="#3da03d"/>
  <rect x="425" y="207" width="130" height="2" fill="#3da03d"/>
  <text x="490" y="226" text-anchor="middle"
        font-family="'Segoe UI',Arial,sans-serif"
        font-size="12" font-weight="700" fill="#1e2d45">Tilemap</text>
  <text x="490" y="244" text-anchor="middle"
        font-family="'Segoe UI',Arial,sans-serif"
        font-size="10" fill="#2a7a2a">Fondo decorativo</text>

  <!-- NIVEL 2: ButtonBack -->
  <rect x="596" y="204" width="120" height="60" rx="8" ry="8"
        fill="#f5edff" stroke="#9060c0" stroke-width="1.5" filter="url(#sh)"/>
  <rect x="596" y="204" width="120" height="5" rx="8" ry="8" fill="#9060c0"/>
  <rect x="596" y="207" width="120" height="2" fill="#9060c0"/>
  <text x="656" y="222" text-anchor="middle"
        font-family="'Segoe UI',Arial,sans-serif"
        font-size="12" font-weight="700" fill="#1e2d45">ButtonBack</text>
  <text x="656" y="237" text-anchor="middle"
        font-family="'Segoe UI',Arial,sans-serif"
        font-size="8.5" fill="#5030a0">OnBackButton</text>
  <text x="656" y="251" text-anchor="middle"
        font-family="'Segoe UI',Arial,sans-serif"
        font-size="8.5" fill="#5030a0">Clicked()</text>

  <!-- NIVEL 2: ButtonYellow -->
  <rect x="728" y="204" width="120" height="60" rx="8" ry="8"
        fill="#f5edff" stroke="#9060c0" stroke-width="1.5" filter="url(#sh)"/>
  <rect x="728" y="204" width="120" height="5" rx="8" ry="8" fill="#9060c0"/>
  <rect x="728" y="207" width="120" height="2" fill="#9060c0"/>
  <text x="788" y="222" text-anchor="middle"
        font-family="'Segoe UI',Arial,sans-serif"
        font-size="12" font-weight="700" fill="#1e2d45">ButtonYellow</text>
  <text x="788" y="237" text-anchor="middle"
        font-family="'Segoe UI',Arial,sans-serif"
        font-size="8.5" fill="#5030a0">OnYellowButton</text>
  <text x="788" y="251" text-anchor="middle"
        font-family="'Segoe UI',Arial,sans-serif"
        font-size="8.5" fill="#5030a0">Clicked()</text>

  <!-- NIVEL 2: ButtonRed -->
  <rect x="860" y="204" width="120" height="60" rx="8" ry="8"
        fill="#f5edff" stroke="#9060c0" stroke-width="1.5" filter="url(#sh)"/>
  <rect x="860" y="204" width="120" height="5" rx="8" ry="8" fill="#9060c0"/>
  <rect x="860" y="207" width="120" height="2" fill="#9060c0"/>
  <text x="920" y="222" text-anchor="middle"
        font-family="'Segoe UI',Arial,sans-serif"
        font-size="12" font-weight="700" fill="#1e2d45">ButtonRed</text>
  <text x="920" y="237" text-anchor="middle"
        font-family="'Segoe UI',Arial,sans-serif"
        font-size="8.5" fill="#5030a0">OnRedButton</text>
  <text x="920" y="251" text-anchor="middle"
        font-family="'Segoe UI',Arial,sans-serif"
        font-size="8.5" fill="#5030a0">Clicked()</text>

  <!-- NIVEL 2: ButtonPurple -->
  <rect x="992" y="204" width="120" height="60" rx="8" ry="8"
        fill="#f5edff" stroke="#9060c0" stroke-width="1.5" filter="url(#sh)"/>
  <rect x="992" y="204" width="120" height="5" rx="8" ry="8" fill="#9060c0"/>
  <rect x="992" y="207" width="120" height="2" fill="#9060c0"/>
  <text x="1052" y="222" text-anchor="middle"
        font-family="'Segoe UI',Arial,sans-serif"
        font-size="12" font-weight="700" fill="#1e2d45">ButtonPurple</text>
  <text x="1052" y="237" text-anchor="middle"
        font-family="'Segoe UI',Arial,sans-serif"
        font-size="8.5" fill="#5030a0">OnPurpleButton</text>
  <text x="1052" y="251" text-anchor="middle"
        font-family="'Segoe UI',Arial,sans-serif"
        font-size="8.5" fill="#5030a0">Clicked()</text>

  <!-- NIVEL 2: ButtonGreen -->
  <rect x="1124" y="204" width="120" height="60" rx="8" ry="8"
        fill="#f5edff" stroke="#9060c0" stroke-width="1.5" filter="url(#sh)"/>
  <rect x="1124" y="204" width="120" height="5" rx="8" ry="8" fill="#9060c0"/>
  <rect x="1124" y="207" width="120" height="2" fill="#9060c0"/>
  <text x="1184" y="222" text-anchor="middle"
        font-family="'Segoe UI',Arial,sans-serif"
        font-size="12" font-weight="700" fill="#1e2d45">ButtonGreen</text>
  <text x="1184" y="237" text-anchor="middle"
        font-family="'Segoe UI',Arial,sans-serif"
        font-size="8.5" fill="#5030a0">OnGreenButton</text>
  <text x="1184" y="251" text-anchor="middle"
        font-family="'Segoe UI',Arial,sans-serif"
        font-size="8.5" fill="#5030a0">Clicked()</text>

  <!-- LEYENDA -->
  <rect x="10" y="278" width="620" height="72" rx="8" ry="8"
        fill="#ffffff" fill-opacity="0.82" stroke="#c0cce0" stroke-width="1.2"/>
  <text x="25" y="296" font-family="'Segoe UI',Arial,sans-serif"
        font-size="11" font-weight="700" fill="#1e2d45">Leyenda de tipos</text>

  <rect x="25" y="304" width="12" height="12" rx="3" ry="3"
        fill="#f0f2f8" stroke="#7080a0" stroke-width="1"/>
  <text x="42" y="315" font-family="'Segoe UI',Arial,sans-serif"
        font-size="10" fill="#3a4a6a">Unity estandar (Camera, Light, EventSystem)</text>

  <rect x="25" y="321" width="12" height="12" rx="3" ry="3"
        fill="#e4f5e4" stroke="#50a050" stroke-width="1"/>
  <text x="42" y="332" font-family="'Segoe UI',Arial,sans-serif"
        font-size="10" fill="#3a4a6a">Grid / Tilemap</text>

  <rect x="25" y="338" width="12" height="12" rx="3" ry="3"
        fill="#d8f0d8" stroke="#3da03d" stroke-width="1"/>
  <text x="42" y="349" font-family="'Segoe UI',Arial,sans-serif"
        font-size="10" fill="#3a4a6a">Tilemap hijo</text>

  <rect x="220" y="304" width="12" height="12" rx="3" ry="3"
        fill="#ede0ff" stroke="#7040c0" stroke-width="1"/>
  <text x="237" y="315" font-family="'Segoe UI',Arial,sans-serif"
        font-size="10" fill="#3a4a6a">Canvas (script adjunto)</text>

  <rect x="220" y="321" width="12" height="12" rx="3" ry="3"
        fill="#f5edff" stroke="#9060c0" stroke-width="1"/>
  <text x="237" y="332" font-family="'Segoe UI',Arial,sans-serif"
        font-size="10" fill="#3a4a6a">Elemento UI hijo (botones)</text>
</svg>