<svg xmlns="http://www.w3.org/2000/svg" width="1220" height="490" viewBox="0 0 1220 490">
  <defs>
    <filter id="sh" x="-15%" y="-15%" width="130%" height="130%">
      <feDropShadow dx="0" dy="2" stdDeviation="3" flood-color="#1e2d45" flood-opacity="0.12"/>
    </filter>
    <linearGradient id="bg" x1="0%" y1="0%" x2="100%" y2="100%">
      <stop offset="0%" stop-color="#f4f6fb"/>
      <stop offset="100%" stop-color="#eef2ff"/>
    </linearGradient>
  </defs>

  <rect x="0" y="0" width="1220" height="490" fill="url(#bg)"/>

  <text x="610" y="15" text-anchor="middle"
        font-family="'Segoe UI',Arial,sans-serif"
        font-size="16" font-weight="700" fill="#1e2d45">
    Jerarquia compartida: VictoryScene y DeadScene
  </text>

  <!-- ROOT -->
  <rect x="430" y="22" width="360" height="55" rx="10" ry="10"
        fill="#1e2d45" filter="url(#sh)"/>
  <text x="610" y="44" text-anchor="middle"
        font-family="'Segoe UI',Arial,sans-serif"
        font-size="14" font-weight="700" fill="#ffffff">[ VictoryScene | DeadScene ]</text>
  <text x="610" y="62" text-anchor="middle"
        font-family="'Segoe UI',Arial,sans-serif"
        font-size="10" fill="#7090c0">Estructura compartida · Scene Root</text>

  <!-- Root → trunk -->
  <line x1="610" y1="77" x2="610" y2="96" stroke="#8090a8" stroke-width="1.8"/>

  <!-- TRUNK NIVEL 1 -->
  <line x1="310" y1="96" x2="890" y2="96"  stroke="#8090a8" stroke-width="1.8"/>
  <line x1="310" y1="96" x2="310" y2="103" stroke="#8090a8" stroke-width="1.8"/>
  <line x1="455" y1="96" x2="455" y2="103" stroke="#8090a8" stroke-width="1.8"/>
  <line x1="600" y1="96" x2="600" y2="103" stroke="#8090a8" stroke-width="1.8"/>
  <line x1="745" y1="96" x2="745" y2="103" stroke="#8090a8" stroke-width="1.8"/>
  <line x1="890" y1="96" x2="890" y2="103" stroke="#8090a8" stroke-width="1.8"/>

  <!-- NIVEL 1: Main Camera -->
  <rect x="245" y="103" width="130" height="60" rx="8" ry="8"
        fill="#f0f2f8" stroke="#7080a0" stroke-width="1.5" filter="url(#sh)"/>
  <rect x="245" y="103" width="130" height="5" rx="8" ry="8" fill="#6078a0"/>
  <rect x="245" y="106" width="130" height="2" fill="#6078a0"/>
  <text x="310" y="124" text-anchor="middle"
        font-family="'Segoe UI',Arial,sans-serif"
        font-size="12" font-weight="700" fill="#1e2d45">Main Camera</text>
  <text x="310" y="142" text-anchor="middle"
        font-family="'Segoe UI',Arial,sans-serif"
        font-size="10" fill="#5070a0">Camera</text>

  <!-- NIVEL 1: Directional Light -->
  <rect x="390" y="103" width="130" height="60" rx="8" ry="8"
        fill="#f0f2f8" stroke="#7080a0" stroke-width="1.5" filter="url(#sh)"/>
  <rect x="390" y="103" width="130" height="5" rx="8" ry="8" fill="#6078a0"/>
  <rect x="390" y="106" width="130" height="2" fill="#6078a0"/>
  <text x="455" y="124" text-anchor="middle"
        font-family="'Segoe UI',Arial,sans-serif"
        font-size="12" font-weight="700" fill="#1e2d45">Directional Light</text>
  <text x="455" y="142" text-anchor="middle"
        font-family="'Segoe UI',Arial,sans-serif"
        font-size="10" fill="#5070a0">Light</text>

  <!-- NIVEL 1: EventSystem -->
  <rect x="535" y="103" width="130" height="60" rx="8" ry="8"
        fill="#f0f2f8" stroke="#7080a0" stroke-width="1.5" filter="url(#sh)"/>
  <rect x="535" y="103" width="130" height="5" rx="8" ry="8" fill="#6078a0"/>
  <rect x="535" y="106" width="130" height="2" fill="#6078a0"/>
  <text x="600" y="124" text-anchor="middle"
        font-family="'Segoe UI',Arial,sans-serif"
        font-size="12" font-weight="700" fill="#1e2d45">EventSystem</text>
  <text x="600" y="142" text-anchor="middle"
        font-family="'Segoe UI',Arial,sans-serif"
        font-size="10" fill="#5070a0">EventSystem</text>

  <!-- NIVEL 1: Grid -->
  <rect x="680" y="103" width="130" height="60" rx="8" ry="8"
        fill="#e4f5e4" stroke="#50a050" stroke-width="1.5" filter="url(#sh)"/>
  <rect x="680" y="103" width="130" height="5" rx="8" ry="8" fill="#408040"/>
  <rect x="680" y="106" width="130" height="2" fill="#408040"/>
  <text x="745" y="124" text-anchor="middle"
        font-family="'Segoe UI',Arial,sans-serif"
        font-size="12" font-weight="700" fill="#1e2d45">Grid</text>
  <text x="745" y="142" text-anchor="middle"
        font-family="'Segoe UI',Arial,sans-serif"
        font-size="10" fill="#3a703a">Grid Component</text>

  <!-- NIVEL 1: Canvas -->
  <rect x="825" y="103" width="130" height="60" rx="8" ry="8"
        fill="#ede0ff" stroke="#7040c0" stroke-width="1.5" filter="url(#sh)"/>
  <rect x="825" y="103" width="130" height="5" rx="8" ry="8" fill="#7040c0"/>
  <rect x="825" y="106" width="130" height="2" fill="#7040c0"/>
  <text x="890" y="121" text-anchor="middle"
        font-family="'Segoe UI',Arial,sans-serif"
        font-size="12" font-weight="700" fill="#1e2d45">Canvas</text>
  <text x="890" y="136" text-anchor="middle"
        font-family="'Segoe UI',Arial,sans-serif"
        font-size="8.5" fill="#5030a0">GameOverCanvas</text>
  <text x="890" y="150" text-anchor="middle"
        font-family="'Segoe UI',Arial,sans-serif"
        font-size="8.5" fill="#5030a0">Handler.cs</text>

  <!-- Grid → Tilemap -->
  <line x1="745" y1="163" x2="745" y2="218" stroke="#408040" stroke-width="1.8"/>
  <!-- Canvas → Panel -->
  <line x1="890" y1="163" x2="890" y2="218" stroke="#7040c0" stroke-width="1.8"/>

  <!-- NIVEL 2: Tilemap -->
  <rect x="680" y="218" width="130" height="60" rx="8" ry="8"
        fill="#d8f0d8" stroke="#3da03d" stroke-width="1.5" filter="url(#sh)"/>
  <rect x="680" y="218" width="130" height="5" rx="8" ry="8" fill="#3da03d"/>
  <rect x="680" y="221" width="130" height="2" fill="#3da03d"/>
  <text x="745" y="240" text-anchor="middle"
        font-family="'Segoe UI',Arial,sans-serif"
        font-size="12" font-weight="700" fill="#1e2d45">Tilemap</text>
  <text x="745" y="258" text-anchor="middle"
        font-family="'Segoe UI',Arial,sans-serif"
        font-size="10" fill="#2a7a2a">Fondo decorativo</text>

  <!-- NIVEL 2: Panel -->
  <rect x="825" y="218" width="130" height="60" rx="8" ry="8"
        fill="#f5edff" stroke="#9060c0" stroke-width="1.5" filter="url(#sh)"/>
  <rect x="825" y="218" width="130" height="5" rx="8" ry="8" fill="#9060c0"/>
  <rect x="825" y="221" width="130" height="2" fill="#9060c0"/>
  <text x="890" y="240" text-anchor="middle"
        font-family="'Segoe UI',Arial,sans-serif"
        font-size="12" font-weight="700" fill="#1e2d45">Panel</text>
  <text x="890" y="258" text-anchor="middle"
        font-family="'Segoe UI',Arial,sans-serif"
        font-size="9" fill="#5030a0">Image · contenedor</text>

  <!-- Panel → trunk nivel 3 -->
  <line x1="890" y1="278" x2="890" y2="322" stroke="#9060c0" stroke-width="1.8"/>

  <!-- TRUNK NIVEL 3 (Panel children) -->
  <line x1="650"  y1="322" x2="1130" y2="322" stroke="#9060c0" stroke-width="1.8"/>
  <line x1="650"  y1="322" x2="650"  y2="330" stroke="#9060c0" stroke-width="1.8"/>
  <line x1="770"  y1="322" x2="770"  y2="330" stroke="#9060c0" stroke-width="1.8"/>
  <line x1="890"  y1="322" x2="890"  y2="330" stroke="#9060c0" stroke-width="1.8"/>
  <line x1="1010" y1="322" x2="1010" y2="330" stroke="#9060c0" stroke-width="1.8"/>
  <line x1="1130" y1="322" x2="1130" y2="330" stroke="#9060c0" stroke-width="1.8"/>

  <!-- NIVEL 3: TitleText -->
  <rect x="585" y="330" width="130" height="60" rx="8" ry="8"
        fill="#fff7db" stroke="#e0a020" stroke-width="1.5" filter="url(#sh)"/>
  <rect x="585" y="330" width="130" height="5" rx="8" ry="8" fill="#e0a020"/>
  <rect x="585" y="333" width="130" height="2" fill="#e0a020"/>
  <text x="650" y="350" text-anchor="middle"
        font-family="'Segoe UI',Arial,sans-serif"
        font-size="12" font-weight="700" fill="#1e2d45">TitleText</text>
  <text x="650" y="365" text-anchor="middle"
        font-family="'Segoe UI',Arial,sans-serif"
        font-size="8.5" fill="#806010">TextMeshProUGUI</text>
  <text x="650" y="380" text-anchor="middle"
        font-family="'Segoe UI',Arial,sans-serif"
        font-size="8.5" fill="#806010">Estatico</text>

  <!-- NIVEL 3: JewelsValueText -->
  <rect x="705" y="330" width="130" height="60" rx="8" ry="8"
        fill="#f5edff" stroke="#9060c0" stroke-width="1.5" filter="url(#sh)"/>
  <rect x="705" y="330" width="130" height="5" rx="8" ry="8" fill="#9060c0"/>
  <rect x="705" y="333" width="130" height="2" fill="#9060c0"/>
  <text x="770" y="348" text-anchor="middle"
        font-family="'Segoe UI',Arial,sans-serif"
        font-size="11" font-weight="700" fill="#1e2d45">JewelsValueText</text>
  <text x="770" y="363" text-anchor="middle"
        font-family="'Segoe UI',Arial,sans-serif"
        font-size="8.5" fill="#5030a0">TextMeshProUGUI</text>
  <text x="770" y="378" text-anchor="middle"
        font-family="'Segoe UI',Arial,sans-serif"
        font-size="8.5" fill="#5030a0">GetDiamonds()</text>

  <!-- NIVEL 3: KeysValueText -->
  <rect x="825" y="330" width="130" height="60" rx="8" ry="8"
        fill="#f5edff" stroke="#9060c0" stroke-width="1.5" filter="url(#sh)"/>
  <rect x="825" y="330" width="130" height="5" rx="8" ry="8" fill="#9060c0"/>
  <rect x="825" y="333" width="130" height="2" fill="#9060c0"/>
  <text x="890" y="348" text-anchor="middle"
        font-family="'Segoe UI',Arial,sans-serif"
        font-size="11" font-weight="700" fill="#1e2d45">KeysValueText</text>
  <text x="890" y="363" text-anchor="middle"
        font-family="'Segoe UI',Arial,sans-serif"
        font-size="8.5" fill="#5030a0">TextMeshProUGUI</text>
  <text x="890" y="378" text-anchor="middle"
        font-family="'Segoe UI',Arial,sans-serif"
        font-size="8.5" fill="#5030a0">GetKeys()</text>

  <!-- NIVEL 3: EnemiesKilledText -->
  <rect x="945" y="330" width="130" height="60" rx="8" ry="8"
        fill="#f5edff" stroke="#9060c0" stroke-width="1.5" filter="url(#sh)"/>
  <rect x="945" y="330" width="130" height="5" rx="8" ry="8" fill="#9060c0"/>
  <rect x="945" y="333" width="130" height="2" fill="#9060c0"/>
  <text x="1010" y="347" text-anchor="middle"
        font-family="'Segoe UI',Arial,sans-serif"
        font-size="11" font-weight="700" fill="#1e2d45">EnemiesKilled</text>
  <text x="1010" y="361" text-anchor="middle"
        font-family="'Segoe UI',Arial,sans-serif"
        font-size="10" font-weight="700" fill="#1e2d45">Text</text>
  <text x="1010" y="376" text-anchor="middle"
        font-family="'Segoe UI',Arial,sans-serif"
        font-size="8.5" fill="#5030a0">EnemiesKilled</text>

  <!-- NIVEL 3: ButtonBack -->
  <rect x="1065" y="330" width="130" height="60" rx="8" ry="8"
        fill="#f5edff" stroke="#9060c0" stroke-width="1.5" filter="url(#sh)"/>
  <rect x="1065" y="330" width="130" height="5" rx="8" ry="8" fill="#9060c0"/>
  <rect x="1065" y="333" width="130" height="2" fill="#9060c0"/>
  <text x="1130" y="350" text-anchor="middle"
        font-family="'Segoe UI',Arial,sans-serif"
        font-size="12" font-weight="700" fill="#1e2d45">ButtonBack</text>
  <text x="1130" y="365" text-anchor="middle"
        font-family="'Segoe UI',Arial,sans-serif"
        font-size="8.5" fill="#5030a0">OnBackButton</text>
  <text x="1130" y="380" text-anchor="middle"
        font-family="'Segoe UI',Arial,sans-serif"
        font-size="8.5" fill="#5030a0">Clicked()</text>

  <!-- DIFERENCIAS ENTRE ESCENAS -->
  <rect x="10" y="408" width="540" height="58" rx="8" ry="8"
        fill="#ffffff" fill-opacity="0.85" stroke="#c0cce0" stroke-width="1.2"/>
  <text x="25" y="424" font-family="'Segoe UI',Arial,sans-serif"
        font-size="10" font-weight="700" fill="#1e2d45">Diferencias entre escenas</text>
  <rect x="22" y="432" width="8" height="8" rx="2" ry="2" fill="#f0b429"/>
  <text x="35" y="440" font-family="'Segoe UI',Arial,sans-serif"
        font-size="9.5" fill="#3a4a6a">VictoryScene: TitleText = "Victoria"  — condicion: cofre alcanzado</text>
  <rect x="22" y="448" width="8" height="8" rx="2" ry="2" fill="#e05555"/>
  <text x="35" y="456" font-family="'Segoe UI',Arial,sans-serif"
        font-size="9.5" fill="#3a4a6a">DeadScene:    TitleText = "Game Over" — condicion: vida = 0</text>

  <!-- LEYENDA -->
  <rect x="560" y="408" width="650" height="68" rx="8" ry="8"
        fill="#ffffff" fill-opacity="0.82" stroke="#c0cce0" stroke-width="1.2"/>
  <text x="575" y="424" font-family="'Segoe UI',Arial,sans-serif"
        font-size="10" font-weight="700" fill="#1e2d45">Leyenda de tipos</text>

  <rect x="575" y="431" width="11" height="11" rx="3" ry="3"
        fill="#f0f2f8" stroke="#7080a0" stroke-width="1"/>
  <text x="591" y="441" font-family="'Segoe UI',Arial,sans-serif"
        font-size="9.5" fill="#3a4a6a">Unity estandar</text>

  <rect x="575" y="447" width="11" height="11" rx="3" ry="3"
        fill="#e4f5e4" stroke="#50a050" stroke-width="1"/>
  <text x="591" y="457" font-family="'Segoe UI',Arial,sans-serif"
        font-size="9.5" fill="#3a4a6a">Grid / Tilemap</text>

  <rect x="575" y="463" width="11" height="11" rx="3" ry="3"
        fill="#d8f0d8" stroke="#3da03d" stroke-width="1"/>
  <text x="591" y="473" font-family="'Segoe UI',Arial,sans-serif"
        font-size="9.5" fill="#3a4a6a">Tilemap hijo</text>

  <rect x="740" y="431" width="11" height="11" rx="3" ry="3"
        fill="#ede0ff" stroke="#7040c0" stroke-width="1"/>
  <text x="756" y="441" font-family="'Segoe UI',Arial,sans-serif"
        font-size="9.5" fill="#3a4a6a">Canvas + script</text>

  <rect x="740" y="447" width="11" height="11" rx="3" ry="3"
        fill="#f5edff" stroke="#9060c0" stroke-width="1"/>
  <text x="756" y="457" font-family="'Segoe UI',Arial,sans-serif"
        font-size="9.5" fill="#3a4a6a">Elemento UI hijo</text>

  <rect x="740" y="463" width="11" height="11" rx="3" ry="3"
        fill="#fff7db" stroke="#e0a020" stroke-width="1"/>
  <text x="756" y="473" font-family="'Segoe UI',Arial,sans-serif"
        font-size="9.5" fill="#3a4a6a">Texto estatico (titulo)</text>
</svg>